<svg xmlns="http://www.w3.org/2000/svg" xmlns:xlink="http://www.w3.org/1999/xlink" width="256" height="222" viewBox="0 0 256 222"><defs><clipPath id="clip-path"><rect id="Rectangle_21" data-name="Rectangle 21" width="181.764" height="113.191" fill="none"></rect></clipPath></defs><g id="Group_242" data-name="Group 242" transform="translate(-50)"><rect id="Rectangle_2" data-name="Rectangle 2" width="256" height="222" transform="translate(50)" fill="#2b367e"></rect><g id="Group_37" data-name="Group 37" transform="translate(86.914 54.404)"><g id="Group_36" data-name="Group 36" clip-path="url(#clip-path)"><path id="Path_50" data-name="Path 50" d="M11.986,18.472C11.865,7.585,9.662,4.037,2.446,3.058.734,2.936,0,2.569,0,1.713S.856.367,2.324.367c.488,0,1.713,0,3.058.122,1.1.123,2.691.123,4.526.123,5.015,0,5.015,0,13.945-.49C26.054,0,28.134,0,29.969,0,38.53,0,44.525,1.346,49.54,4.527a18.07,18.07,0,0,1,8.685,15.167,17.647,17.647,0,0,1-3.914,11.131c-1.835,2.2-2.079,2.448-6.605,5.382-.489.367-.856.734-.856.979,0,.49.122.49,3.058,1.223,9.174,2.446,15.169,10.4,15.169,20.183,0,14.923-11.989,25.2-29.6,25.2-2.2,0-5.259-.121-9.174-.488a65.567,65.567,0,0,0-9.3-.49c-3.914,0-6.972.123-7.951.245a36.181,36.181,0,0,1-4.037.367c-1.1,0-1.713-.488-1.713-1.346,0-.734.489-1.1,1.835-1.222,5.5-.734,6.483-3.058,6.849-16.269Zm23.12,18.1c9.541,0,15.046-4.893,15.046-13.21a20.194,20.194,0,0,0-6.116-14.19C40.243,5.749,33.761,3.425,27.889,3.425c-5.5,0-6.728,1.1-6.728,5.994V33.394c0,2.813.612,3.3,4.037,3.18ZM24.464,40.855c-2.813-.121-3.3.246-3.3,2.324V70.7c.122,5.5.122,5.626.979,6.728,1.59,1.956,6.483,3.058,14.189,3.058,6.605,0,10.642-1.224,13.945-4.16,3.67-3.3,5.994-8.929,5.994-14.679,0-8.2-4.159-15.413-10.642-18.471-4.037-1.957-5.994-2.324-12.721-2.324Z" fill="#fff"></path><path id="Path_51" data-name="Path 51" d="M91.1,45.664c0-5.016-.367-6.605-1.834-8.563-1.958-2.691-5.995-4.526-9.787-4.526-5.382,0-8.194,2.446-8.194,6.85a11.827,11.827,0,0,0,.855,4.4,9.747,9.747,0,0,1,.367,1.957,1.027,1.027,0,0,1-1.1,1.1,19.1,19.1,0,0,1-5.382-1.223A2.8,2.8,0,0,1,63.945,43.1c0-2.569,2.446-6.851,5.138-9.3a21.836,21.836,0,0,1,13.455-4.647c5.994,0,12.11,2.569,14.8,6.116,1.346,1.835,1.957,4.4,1.957,7.705V66.458c0,5.261.246,6.362,1.591,8.2a5.456,5.456,0,0,0,4.4,2.079,8.379,8.379,0,0,0,2.691-.489.966.966,0,0,1,.979.979c-.123,1.346-4.771,3.18-8.073,3.18-3.792,0-5.995-1.59-8.929-5.994-6.362,4.647-10.765,6.483-16.025,6.483-7.584,0-12.354-4.281-12.354-11.131,0-5.871,3.547-10.03,11.254-12.966,3.915-1.468,8.319-2.446,16.269-3.67Zm0,9.786a37.83,37.83,0,0,0-13.455,3.67c-4.159,1.957-6.116,5.015-6.116,9.174,0,5.382,3.547,8.929,8.807,8.929,3.548,0,7.462-1.713,9.3-4.037,1.1-1.346,1.467-2.813,1.467-5.871Z" transform="translate(7.122 3.265)" fill="#fff"></path><path id="Path_52" data-name="Path 52" d="M117.135,67.493c0,4.526.367,6.238,1.713,7.584a9.624,9.624,0,0,0,6.85,2.57c3.181,0,4.4-.367,9.3-2.813a.727.727,0,0,1,.488-.123.579.579,0,0,1,.613.612c0,2.692-7.952,6.605-13.579,6.605-8.685,0-13.7-5.259-13.7-14.312V37.4h-5.383c-.979,0-1.468-.244-1.468-.977,0-.49.367-1.1,1.59-2.081A63.915,63.915,0,0,0,114.2,22.48c1.346-2.081,1.835-2.57,2.324-2.57s.857.612.857,1.591l-.246,10.274h12.721a6.419,6.419,0,0,0,4.037-.979c.856-.612,1.1-.734,1.346-.734.367,0,.612.246.612.734,0,.246,0,.246-1.957,4.893-.611,1.59-.979,1.713-4.4,1.713H117.135Z" transform="translate(11.422 2.23)" fill="#fff"></path><path id="Path_53" data-name="Path 53" d="M147.933,67.493c0,4.526.367,6.238,1.713,7.584a9.62,9.62,0,0,0,6.85,2.57c3.18,0,4.4-.367,9.3-2.813a.73.73,0,0,1,.489-.123.578.578,0,0,1,.612.612c0,2.692-7.952,6.605-13.578,6.605-8.686,0-13.7-5.259-13.7-14.312V37.4h-5.382c-.979,0-1.469-.244-1.469-.977,0-.49.367-1.1,1.591-2.081A63.908,63.908,0,0,0,145,22.48c1.346-2.081,1.836-2.57,2.325-2.57s.856.612.856,1.591l-.245,10.274h12.72a6.422,6.422,0,0,0,4.038-.979c.856-.612,1.1-.734,1.346-.734.366,0,.612.246.612.734,0,.246,0,.246-1.957,4.893-.612,1.59-.98,1.713-4.4,1.713H147.933Z" transform="translate(14.871 2.23)" fill="#fff"></path><path id="Path_54" data-name="Path 54" d="M68.159,16.128c-.843-.019-.955.056-1.273.842l-.579,1.348a3.086,3.086,0,0,0-.411,1.367c0,.579.2.767,1.066.954.187.037.281.112.281.225,0,.093-.095.15-.245.15-.112,0-.112,0-1.2-.076-.3-.019-.6-.019-1.01-.019a2.886,2.886,0,0,0-.431.019c-.262.019-.467.038-.5.038-.15,0-.244-.057-.244-.168,0-.132.019-.15.5-.281a3.846,3.846,0,0,0,1.254-1.853l4.7-10.443c.111-.226.149-.262.261-.262s.168.057.261.262L74.522,18.28c.112.318.244.618.374.955a1.762,1.762,0,0,0,1.666,1.347c.188.038.281.093.281.207s-.093.168-.262.168l-.337-.019a14.032,14.032,0,0,0-1.7-.056l-.861.019a4.021,4.021,0,0,0-.712.056c-.13.019-.244.038-.3.038a.224.224,0,0,1-.225-.187c0-.132.056-.169.524-.262a.541.541,0,0,0,.449-.617,6.049,6.049,0,0,0-.562-1.947l-.449-1.2c-.15-.394-.2-.506-.3-.562-.093-.075-.225-.093-.617-.093Zm1.984-5.091c-.131-.374-.207-.486-.3-.486-.056,0-.093.037-.149.168l-1.778,3.968a.738.738,0,0,0-.112.337c0,.187.056.206.655.244h2.508c.562,0,.712-.038.712-.225a1.59,1.59,0,0,0-.093-.375Z" transform="translate(7.125 0.893)" fill="#fff"></path><path id="Path_55" data-name="Path 55" d="M78.206,18.844c.075,1.386.225,1.572,1.31,1.778.188.019.261.093.261.187a.207.207,0,0,1-.2.206,1.571,1.571,0,0,1-.226-.038l-.486-.018h-.655A12.9,12.9,0,0,0,76.6,21c-.17.018-.318.037-.357.037A.23.23,0,0,1,76,20.847c0-.112.075-.169.261-.225.693-.244.712-.318.693-1.46V9.8a2.225,2.225,0,0,0-.037-.618A.607.607,0,0,0,76.3,8.7a2.748,2.748,0,0,0-.318.019H75.9c-.169,0-.262-.057-.262-.169,0-.075.076-.131.244-.187a8.2,8.2,0,0,0,2.021-.843.666.666,0,0,1,.187-.075c.095,0,.15.15.132.375l-.019.3Z" transform="translate(8.473 0.834)" fill="#fff"></path><path id="Path_56" data-name="Path 56" d="M84.531,15.223c0-.767-.057-1.01-.281-1.31a1.932,1.932,0,0,0-1.5-.692c-.824,0-1.254.374-1.254,1.048a1.8,1.8,0,0,0,.132.674,1.515,1.515,0,0,1,.054.3.157.157,0,0,1-.168.169,2.919,2.919,0,0,1-.823-.188.426.426,0,0,1-.318-.393,2.428,2.428,0,0,1,.786-1.422A3.336,3.336,0,0,1,83.22,12.7a3,3,0,0,1,2.265.936,1.964,1.964,0,0,1,.3,1.179v3.594c0,.8.037.973.244,1.253a.831.831,0,0,0,.673.318,1.284,1.284,0,0,0,.411-.075.148.148,0,0,1,.15.15c-.019.206-.729.486-1.234.486-.582,0-.919-.244-1.368-.917a3.964,3.964,0,0,1-2.451.992,1.676,1.676,0,0,1-1.89-1.7c0-.9.543-1.535,1.723-1.984a12.194,12.194,0,0,1,2.489-.562Zm0,1.5a5.791,5.791,0,0,0-2.059.562,1.457,1.457,0,0,0-.935,1.4,1.283,1.283,0,0,0,1.348,1.367,1.937,1.937,0,0,0,1.422-.618,1.269,1.269,0,0,0,.225-.9Z" transform="translate(8.997 1.422)" fill="#fff"></path><path id="Path_57" data-name="Path 57" d="M89.956,14.176a3.228,3.228,0,0,1,2.564-1.459,2.816,2.816,0,0,1,2.415,1.4,4.476,4.476,0,0,1,.448,2.3v2.19c-.019,1.142.131,1.348,1.179,1.46.15.037.244.093.244.187,0,.131-.131.206-.318.206l-.337-.019a8.685,8.685,0,0,0-1.254-.038l-.766.02h-.338l-.28.018a.148.148,0,0,1-.168-.168c0-.131.018-.131.43-.244.261-.075.356-.225.356-.655V16.215a2.66,2.66,0,0,0-.449-1.8,2.192,2.192,0,0,0-1.778-.861,2.271,2.271,0,0,0-1.647.729.972.972,0,0,0-.3.767v3.463c-.037,1.254.113,1.422,1.292,1.571.206.019.3.076.3.188a.19.19,0,0,1-.206.168c-.093,0-.262-.018-.468-.038a6.618,6.618,0,0,0-.729-.018,19.5,19.5,0,0,0-2.191.056h-.037c-.131,0-.188-.056-.188-.13,0-.093.057-.15.169-.188.617-.149.824-.5.805-1.4V14.831c-.038-1.048-.131-1.141-1.123-1.1-.149,0-.242-.056-.242-.168,0-.093.073-.131.224-.169a7.3,7.3,0,0,0,2.022-.786.449.449,0,0,1,.224-.075c.131,0,.15.057.15.618Z" transform="translate(9.783 1.403)" fill="#fff"></path><path id="Path_58" data-name="Path 58" d="M32.371,96.014v1.334a3.039,3.039,0,0,0-1.645-.507c-.587,0-1,.231-1,.649,0,.391.364.569,1.058.854.943.373,1.975.791,1.975,2.053a2.152,2.152,0,0,1-2.438,2.081,3.5,3.5,0,0,1-2.009-.6v-1.4a2.944,2.944,0,0,0,1.867.728c.658,0,1.094-.3,1.094-.756s-.463-.658-1.183-.951c-.817-.338-1.8-.774-1.8-1.956a2.072,2.072,0,0,1,2.347-1.983,3.49,3.49,0,0,1,1.725.453" transform="translate(3.17 10.704)" fill="#fff"></path><path id="Path_59" data-name="Path 59" d="M40.08,102.321l-.587-1.618H37.011l-.569,1.618h-1.51l2.48-6.632h1.671l2.516,6.632Zm-1-2.809L38.247,97.2l-.835,2.312Z" transform="translate(3.913 10.718)" fill="#fff"></path><path id="Path_60" data-name="Path 60" d="M44,95.688h1.45V101h2.746v1.317H44Z" transform="translate(4.928 10.718)" fill="#fff"></path><path id="Path_61" data-name="Path 61" d="M50.979,95.688H55.14V97H52.429v1.379h2.48v1.2h-2.48v1.449H55.14v1.3H50.979Z" transform="translate(5.71 10.718)" fill="#fff"></path><path id="Path_62" data-name="Path 62" d="M62.083,96.014v1.334a3.039,3.039,0,0,0-1.645-.507c-.587,0-1,.231-1,.649,0,.391.364.569,1.058.854.943.373,1.975.791,1.975,2.053a2.152,2.152,0,0,1-2.438,2.081,3.5,3.5,0,0,1-2.009-.6v-1.4a2.944,2.944,0,0,0,1.867.728c.658,0,1.094-.3,1.094-.756s-.463-.658-1.183-.951c-.817-.338-1.8-.774-1.8-1.956a2.072,2.072,0,0,1,2.347-1.983,3.49,3.49,0,0,1,1.725.453" transform="translate(6.498 10.704)" fill="#fff"></path><path id="Path_63" data-name="Path 63" d="M74.078,97.278c0,.889-.632,1.36-1.413,1.743l1.022,1.058.818-1.333h1.333l-1.378,2.143,1.4,1.449H74.292l-.56-.577a2.867,2.867,0,0,1-1.92.728,2.017,2.017,0,0,1-2.232-1.956,1.952,1.952,0,0,1,1.281-1.76,2.228,2.228,0,0,1-.792-1.511A1.852,1.852,0,0,1,72.1,95.553a1.79,1.79,0,0,1,1.974,1.725m-2.144,4.117a1.566,1.566,0,0,0,1.041-.427L71.6,99.545c-.417.24-.685.507-.685.934a.928.928,0,0,0,1.022.915m.019-3.113c.569-.266.951-.533.951-.96a.728.728,0,0,0-.791-.7.7.7,0,0,0-.783.658c0,.285.187.533.623,1" transform="translate(7.794 10.703)" fill="#fff"></path><path id="Path_64" data-name="Path 64" d="M82.866,95.688h1.45V101h2.747v1.317h-4.2Z" transform="translate(9.282 10.718)" fill="#fff"></path><path id="Path_65" data-name="Path 65" d="M89.851,95.688h4.161V97H91.3v1.379h2.48v1.2H91.3v1.449h2.711v1.3H89.851Z" transform="translate(10.065 10.718)" fill="#fff"></path><path id="Path_66" data-name="Path 66" d="M98.558,97.013H96.611V95.689h5.325v1.324H100v5.308h-1.44Z" transform="translate(10.822 10.718)" fill="#fff"></path><path id="Path_67" data-name="Path 67" d="M106.07,97.013h-1.947V95.689h5.325v1.324H107.51v5.308h-1.44Z" transform="translate(11.663 10.718)" fill="#fff"></path><rect id="Rectangle_20" data-name="Rectangle 20" width="1.45" height="6.633" transform="translate(124.681 106.406)" fill="#fff"></rect><path id="Path_68" data-name="Path 68" d="M122.84,102.321h-1.369l-2.952-4.331h-.009v4.331h-1.388V95.688h1.406l2.926,4.259h.009V95.688h1.378Z" transform="translate(13.119 10.718)" fill="#fff"></path><path id="Path_69" data-name="Path 69" d="M129.077,101.163a2.108,2.108,0,0,0,.96-.2v-2.2h1.327v3.05a4.14,4.14,0,0,1-2.305.675,3.467,3.467,0,0,1,.009-6.935,4.122,4.122,0,0,1,2.027.506v1.432a3.214,3.214,0,0,0-1.857-.578,2.064,2.064,0,0,0-2.143,2.143,1.988,1.988,0,0,0,1.983,2.107" transform="translate(14.072 10.703)" fill="#fff"></path><path id="Path_70" data-name="Path 70" d="M138.106,96.014v1.334a3.039,3.039,0,0,0-1.645-.507c-.587,0-1,.231-1,.649,0,.391.365.569,1.058.854.943.373,1.975.791,1.975,2.053a2.151,2.151,0,0,1-2.436,2.081,3.5,3.5,0,0,1-2.009-.6v-1.4a2.94,2.94,0,0,0,1.867.728c.658,0,1.094-.3,1.094-.756s-.463-.658-1.183-.951c-.817-.338-1.8-.774-1.8-1.956a2.071,2.071,0,0,1,2.346-1.983,3.494,3.494,0,0,1,1.726.453" transform="translate(15.014 10.704)" fill="#fff"></path></g></g></g></svg>